<svg width="90" height="91" viewBox="0 0 90 91" fill="none" xmlns="http://www.w3.org/2000/svg">
<circle cx="45" cy="45.462" r="44.3497" stroke="#242A41"/>
<path d="M35.7251 20.9075C35.5503 20.8006 35.4096 20.6461 35.3194 20.4622C35.2293 20.2782 35.1934 20.0723 35.216 19.8687C35.2386 19.665 35.3188 19.472 35.4472 19.3123C35.5755 19.1526 35.7467 19.0328 35.9407 18.9669C39.8691 17.6079 44.0512 17.1423 48.1823 17.6039C52.3134 18.0655 56.2895 19.4427 59.8211 21.6352C59.9525 21.7137 60.0657 21.8192 60.1531 21.9447C60.2406 22.0703 60.3003 22.213 60.3284 22.3634C60.3564 22.5138 60.3521 22.6685 60.3158 22.8171C60.2794 22.9658 60.2119 23.105 60.1175 23.2255C56.9838 27.2021 53.1581 30.5804 48.8243 33.1981C45.3169 28.2724 40.864 24.0943 35.7251 20.9075ZM44.97 35.2195C41.0238 29.8578 35.8474 25.5226 29.8763 22.5786C29.7 22.4987 29.5065 22.4643 29.3135 22.4784C29.1205 22.4925 28.9341 22.5548 28.7713 22.6595C23.94 26.1391 20.328 31.0526 18.4483 36.7019C18.4038 36.8453 18.3898 36.9964 18.4071 37.1456C18.4244 37.2947 18.4726 37.4386 18.5487 37.568C18.6248 37.6974 18.7272 37.8095 18.8491 37.897C18.971 37.9846 19.1099 38.0458 19.2569 38.0765C22.0734 38.6844 24.9465 38.9915 27.8279 38.9929C33.7488 39.0004 39.5996 37.7125 44.97 35.2195ZM72.9472 42.416C72.2577 36.1641 69.4857 30.3258 65.0769 25.8399C64.968 25.7339 64.8385 25.6514 64.6963 25.5978C64.5542 25.5441 64.4024 25.5203 64.2507 25.5279C64.0989 25.5354 63.9503 25.5743 63.8142 25.6419C63.6781 25.7095 63.5575 25.8044 63.4597 25.9208C60.0514 30.2704 55.877 33.9606 51.1422 36.8098C52.6191 39.3726 53.8466 42.0713 54.8078 44.8687C58.6652 43.8256 62.6442 43.2999 66.6402 43.3054C68.3514 43.3094 70.061 43.4084 71.7612 43.6019C71.9211 43.6189 72.0828 43.5999 72.2344 43.5463C72.386 43.4927 72.5237 43.4059 72.6374 43.2922C72.7511 43.1785 72.8379 43.0408 72.8915 42.8892C72.9451 42.7375 72.9641 42.5759 72.9472 42.416ZM55.9937 49.0194C56.7856 52.4215 57.1835 55.9033 57.1797 59.3963C57.1777 62.7332 56.8071 66.0596 56.0746 69.315C56.0266 69.5152 56.0369 69.725 56.1043 69.9195C56.1717 70.114 56.2933 70.2852 56.4549 70.4127C56.6165 70.5403 56.8112 70.6189 57.0161 70.6393C57.2209 70.6597 57.4273 70.6211 57.6109 70.5279C61.7008 68.4823 65.2287 65.4681 67.8875 61.7476C70.5463 58.0271 72.2555 53.7131 72.8663 49.1812C72.8851 49.0394 72.8756 48.8953 72.8382 48.7573C72.8008 48.6193 72.7364 48.4901 72.6486 48.3772C72.5608 48.2643 72.4514 48.17 72.3268 48.0998C72.2023 48.0296 72.065 47.9849 71.9229 47.9683C70.1723 47.7291 68.4071 47.612 66.6402 47.6179C63.0451 47.6134 59.4652 48.0847 55.9937 49.0194ZM50.684 46.2163C49.8299 43.6623 48.7097 41.205 47.3418 38.8851C41.2506 41.8022 34.5816 43.3128 27.8279 43.3054C24.6661 43.3037 21.5132 42.9695 18.4213 42.3082C18.2716 42.2771 18.1169 42.2782 17.9676 42.3115C17.8183 42.3448 17.6778 42.4095 17.5554 42.5013C17.4331 42.5931 17.3316 42.7098 17.2579 42.8438C17.1841 42.9778 17.1397 43.126 17.1276 43.2785C17.0737 43.9972 17.0467 44.7249 17.0467 45.4617C17.0454 49.2995 17.8344 53.0965 19.3646 56.6161C20.8949 60.1357 23.1336 63.3024 25.9412 65.9189C26.0569 66.0301 26.1965 66.1132 26.3493 66.1621C26.5021 66.2109 26.664 66.2241 26.8227 66.2007C26.9814 66.1773 27.1327 66.1179 27.2648 66.027C27.397 65.9361 27.5066 65.8162 27.5853 65.6764C32.8443 56.7487 40.9931 49.8835 50.684 46.2163ZM30.9814 68.4256C30.9095 68.5492 30.8629 68.6858 30.8443 68.8276C30.8257 68.9694 30.8355 69.1135 30.8731 69.2514C30.9108 69.3894 30.9755 69.5185 31.0635 69.6312C31.1514 69.7439 31.261 69.838 31.3857 69.908C35.5629 72.267 40.2805 73.5021 45.0778 73.4927C46.7138 73.4999 48.3469 73.3555 49.9563 73.0615C50.1426 73.0306 50.3167 72.9487 50.4594 72.8251C50.6021 72.7014 50.7078 72.5407 50.7649 72.3607C52.1629 68.1816 52.8729 63.8031 52.8672 59.3963C52.8657 56.3592 52.5313 53.3314 51.8699 50.3671C43.0411 53.8112 35.6657 60.1874 30.9814 68.4256Z" fill="#242A41"/>
</svg>
